<svg width="36" height="36" viewBox="0 0 36 36" fill="none" xmlns="http://www.w3.org/2000/svg">
<rect width="36" height="36" rx="18" fill="#24A1DE"/>
<path fill-rule="evenodd" clip-rule="evenodd" d="M8.14766 17.8094C13.395 15.5232 16.8941 14.0161 18.6449 13.2878C23.6436 11.2087 24.6824 10.8475 25.3594 10.8356C25.5083 10.833 25.8412 10.8699 26.0569 11.0449C26.239 11.1926 26.2891 11.3922 26.313 11.5323C26.337 11.6724 26.3669 11.9915 26.3431 12.2409C26.0723 15.0871 24.9001 21.9942 24.3038 25.182C24.0515 26.5309 23.5547 26.9832 23.0737 27.0274C22.0284 27.1236 21.2347 26.3366 20.2222 25.673C18.638 24.6345 17.743 23.988 16.2052 22.9746C14.4281 21.8035 15.5801 21.1599 16.5929 20.1079C16.858 19.8326 21.4636 15.6435 21.5527 15.2635C21.5639 15.2159 21.5742 15.0388 21.469 14.9452C21.3637 14.8517 21.2084 14.8837 21.0963 14.9091C20.9374 14.9452 18.4066 16.618 13.5038 19.9275C12.7854 20.4208 12.1347 20.6611 11.5517 20.6485C10.9091 20.6346 9.67277 20.2851 8.75372 19.9864C7.62647 19.6199 6.73055 19.4262 6.80857 18.8039C6.8492 18.4798 7.29557 18.1483 8.14766 17.8094Z" fill="white"/>
</svg>
